<?xml version="1.0" encoding="UTF-8"?>
<!DOCTYPE svg PUBLIC "-//W3C//DTD SVG 1.1//EN" "http://www.w3.org/Graphics/SVG/1.1/DTD/svg11.dtd">
<svg xmlns="http://www.w3.org/2000/svg" version="1.1" width="570px" height="438px" style="shape-rendering:geometricPrecision; text-rendering:geometricPrecision; image-rendering:optimizeQuality; fill-rule:evenodd; clip-rule:evenodd" xmlns:xlink="http://www.w3.org/1999/xlink">
<g><path style="opacity:1" fill="#172d2a" d="M 513.5,176.5 C 513.44,175.957 513.107,175.624 512.5,175.5C 511.833,176.167 511.167,176.833 510.5,177.5C 509.742,176.189 508.742,175.689 507.5,176C 508.641,176.741 508.641,177.575 507.5,178.5C 508.025,179.192 508.692,179.692 509.5,180C 508.91,181.509 508.244,183.009 507.5,184.5C 506.676,182.252 505.676,182.086 504.5,184C 507.304,186.601 506.971,188.101 503.5,188.5C 503.667,176.829 503.5,165.162 503,153.5C 502.974,149.821 502.14,146.488 500.5,143.5C 500.116,139.414 499.283,135.414 498,131.5C 468.363,116.899 437.53,105.566 405.5,97.5C 383.707,92.3297 361.54,88.3297 339,85.5C 337.5,85.8333 336,86.1667 334.5,86.5C 330.99,93.5292 326.99,100.196 322.5,106.5C 321.5,106.5 320.5,106.5 319.5,106.5C 318.306,108.978 318.139,106.978 319,100.5C 320.425,94.2202 321.925,87.8869 323.5,81.5C 323.167,81.1667 322.833,80.8333 322.5,80.5C 317.067,81.8903 311.733,81.557 306.5,79.5C 289.664,80.1593 272.83,80.8259 256,81.5C 254.674,81.2451 253.674,80.5784 253,79.5C 251.213,85.6598 249.88,91.9932 249,98.5C 246.923,94.5712 245.423,90.4045 244.5,86C 244.499,82.9567 245.332,82.79 247,85.5C 248.067,84.8095 249.234,84.3095 250.5,84C 248.893,82.951 248.227,81.451 248.5,79.5C 246.712,79.2148 245.045,79.5481 243.5,80.5C 244.894,81.6869 244.727,82.3535 243,82.5C 241.856,82.0889 240.689,81.7556 239.5,81.5C 235.518,81.8614 231.851,82.8614 228.5,84.5C 226.833,85.1667 225.167,85.8333 223.5,86.5C 203.06,88.3899 183.06,92.0565 163.5,97.5C 131.322,105.393 100.322,116.559 70.5,131C 69.1367,132.945 68.3034,135.112 68,137.5C 67.0998,144.173 66.2664,150.839 65.5,157.5C 64.6859,169.846 64.3526,182.179 64.5,194.5C 54.3367,180.509 46.5033,165.176 41,148.5C 39.9505,147.483 38.7839,147.316 37.5,148C 31.5,151.667 25.5,155.333 19.5,159C 18.5,159.667 17.5,159.667 16.5,159C 11.2084,150.918 6.04171,142.751 1,134.5C 0.279695,132.888 0.446361,131.388 1.5,130C 140.052,46.6388 287.052,27.6388 442.5,73C 485.502,86.8381 526.168,105.505 564.5,129C 566.847,130.191 567.68,132.024 567,134.5C 561.958,142.751 556.792,150.918 551.5,159C 550.5,159.667 549.5,159.667 548.5,159C 541.866,154.301 534.866,150.634 527.5,148C 523.459,157.915 518.792,167.415 513.5,176.5 Z"/></g>
<g><path style="opacity:1" fill="#32806d" d="M 228.5,84.5 C 233.167,84.5 237.833,84.5 242.5,84.5C 243.297,88.2232 244.297,91.8899 245.5,95.5C 245.167,95.5 244.833,95.5 244.5,95.5C 243.101,92.3012 242.101,88.9679 241.5,85.5C 235.491,85.701 229.491,86.0343 223.5,86.5C 225.167,85.8333 226.833,85.1667 228.5,84.5 Z"/></g>
<g><path style="opacity:1" fill="#12352e" d="M 322.5,106.5 C 319.482,114.369 317.815,114.202 317.5,106C 318.64,98.5215 319.64,91.0215 320.5,83.5C 314.833,83.5 309.167,83.5 303.5,83.5C 287.675,82.5036 271.675,82.1703 255.5,82.5C 255.5,92.8333 255.5,103.167 255.5,113.5C 254.325,113.719 253.325,113.386 252.5,112.5C 249.878,106.926 247.544,101.259 245.5,95.5C 244.297,91.8899 243.297,88.2232 242.5,84.5C 237.833,84.5 233.167,84.5 228.5,84.5C 231.851,82.8614 235.518,81.8614 239.5,81.5C 240.689,81.7556 241.856,82.0889 243,82.5C 244.727,82.3535 244.894,81.6869 243.5,80.5C 245.045,79.5481 246.712,79.2148 248.5,79.5C 248.227,81.451 248.893,82.951 250.5,84C 249.234,84.3095 248.067,84.8095 247,85.5C 245.332,82.79 244.499,82.9567 244.5,86C 245.423,90.4045 246.923,94.5712 249,98.5C 249.88,91.9932 251.213,85.6598 253,79.5C 253.674,80.5784 254.674,81.2451 256,81.5C 272.83,80.8259 289.664,80.1593 306.5,79.5C 311.733,81.557 317.067,81.8903 322.5,80.5C 322.833,80.8333 323.167,81.1667 323.5,81.5C 321.925,87.8869 320.425,94.2202 319,100.5C 318.139,106.978 318.306,108.978 319.5,106.5C 320.5,106.5 321.5,106.5 322.5,106.5 Z"/></g>
<g><path style="opacity:1" fill="#39b697" d="M 256.5,85.5 C 256.5,85.1667 256.5,84.8333 256.5,84.5C 277.167,84.5 297.833,84.5 318.5,84.5C 318.657,85.8734 318.49,87.2068 318,88.5C 316.414,89.376 314.914,90.376 313.5,91.5C 313.846,92.6956 314.346,92.6956 315,91.5C 315.995,94.1262 316.328,96.7929 316,99.5C 315.333,98.1667 314.667,98.1667 314,99.5C 313.51,98.2068 313.343,96.8734 313.5,95.5C 311.5,95.5 309.5,95.5 307.5,95.5C 307.813,98.2469 307.48,100.914 306.5,103.5C 305.479,96.8781 304.479,96.8781 303.5,103.5C 289.458,103.535 275.624,103.535 262,103.5C 261.667,104.833 261.333,106.167 261,107.5C 260.667,103.833 260.333,100.167 260,96.5C 256.932,94.8213 256.766,92.8213 259.5,90.5C 258.167,89.1667 258.167,87.8333 259.5,86.5C 258.675,85.6143 257.675,85.281 256.5,85.5 Z"/></g>
<g><path style="opacity:1" fill="#226f5d" d="M 397.5,102.5 C 399.58,104.573 401.246,106.907 402.5,109.5C 399.536,107.038 396.703,104.371 394,101.5C 393.292,102.381 392.458,103.047 391.5,103.5C 392.775,99.8634 394.775,99.5301 397.5,102.5 Z"/></g>
<g><path style="opacity:1" fill="#37b093" d="M 256.5,84.5 C 271.991,83.5037 287.658,83.1704 303.5,83.5C 309.167,83.5 314.833,83.5 320.5,83.5C 319.64,91.0215 318.64,98.5215 317.5,106C 317.815,114.202 319.482,114.369 322.5,106.5C 326.99,100.196 330.99,93.5292 334.5,86.5C 336,86.1667 337.5,85.8333 339,85.5C 361.54,88.3297 383.707,92.3297 405.5,97.5C 405.5,98.1667 405.5,98.8333 405.5,99.5C 409.784,107.689 408.118,108.355 400.5,101.5C 399.583,102.127 398.583,102.461 397.5,102.5C 394.775,99.5301 392.775,99.8634 391.5,103.5C 386.085,108.579 381.418,114.246 377.5,120.5C 361.12,115.854 347.453,119.854 336.5,132.5C 334.859,130.742 332.859,129.242 330.5,128C 306.923,118.446 282.589,115.946 257.5,120.5C 251.253,119.819 245.586,121.153 240.5,124.5C 239.289,123.726 239.289,122.893 240.5,122C 242.5,121.667 244.5,121.333 246.5,121C 247.167,119.667 248.167,118.667 249.5,118C 248.892,117.13 248.059,116.63 247,116.5C 240.598,118.058 234.098,119.058 227.5,119.5C 220.185,118.482 212.851,118.316 205.5,119C 207.833,120.243 208.5,121.909 207.5,124C 206.258,124.311 205.258,123.811 204.5,122.5C 203.465,125.266 201.799,125.932 199.5,124.5C 194.152,116.473 188.318,108.806 182,101.5C 178.042,103.633 174.542,106.299 171.5,109.5C 170.127,109.343 168.793,109.51 167.5,110C 169.107,113.457 170.774,116.957 172.5,120.5C 170.041,121.643 167.707,121.31 165.5,119.5C 164.269,118.349 164.269,117.183 165.5,116C 162.854,115.503 160.187,115.336 157.5,115.5C 157.5,116.5 157.5,117.5 157.5,118.5C 154.398,118.154 151.565,118.821 149,120.5C 148.085,119.672 147.419,118.672 147,117.5C 146.712,120.287 145.212,121.953 142.5,122.5C 143.412,120.405 144.579,118.405 146,116.5C 151.671,109.996 157.505,103.663 163.5,97.5C 183.06,92.0565 203.06,88.3899 223.5,86.5C 229.491,86.0343 235.491,85.701 241.5,85.5C 242.101,88.9679 243.101,92.3012 244.5,95.5C 246.275,100.44 246.941,105.44 246.5,110.5C 248.833,111.5 250.5,113.167 251.5,115.5C 252.723,116.614 254.056,116.781 255.5,116C 256.486,105.916 256.819,95.7491 256.5,85.5C 257.675,85.281 258.675,85.6143 259.5,86.5C 258.167,87.8333 258.167,89.1667 259.5,90.5C 256.766,92.8213 256.932,94.8213 260,96.5C 260.333,100.167 260.667,103.833 261,107.5C 261.333,106.167 261.667,104.833 262,103.5C 275.624,103.535 289.458,103.535 303.5,103.5C 304.479,96.8781 305.479,96.8781 306.5,103.5C 307.48,100.914 307.813,98.2469 307.5,95.5C 309.5,95.5 311.5,95.5 313.5,95.5C 313.343,96.8734 313.51,98.2068 314,99.5C 314.667,98.1667 315.333,98.1667 316,99.5C 316.328,96.7929 315.995,94.1262 315,91.5C 314.346,92.6956 313.846,92.6956 313.5,91.5C 314.914,90.376 316.414,89.376 318,88.5C 318.49,87.2068 318.657,85.8734 318.5,84.5C 297.833,84.5 277.167,84.5 256.5,84.5 Z"/></g>
<g><path style="opacity:1" fill="#389d84" d="M 303.5,83.5 C 287.658,83.1704 271.991,83.5037 256.5,84.5C 256.5,84.8333 256.5,85.1667 256.5,85.5C 256.819,95.7491 256.486,105.916 255.5,116C 254.056,116.781 252.723,116.614 251.5,115.5C 250.5,113.167 248.833,111.5 246.5,110.5C 246.941,105.44 246.275,100.44 244.5,95.5C 244.833,95.5 245.167,95.5 245.5,95.5C 247.544,101.259 249.878,106.926 252.5,112.5C 253.325,113.386 254.325,113.719 255.5,113.5C 255.5,103.167 255.5,92.8333 255.5,82.5C 271.675,82.1703 287.675,82.5036 303.5,83.5 Z"/></g>
<g><path style="opacity:1" fill="#14302b" d="M 402.5,109.5 C 403.801,110.884 403.801,112.384 402.5,114C 396.918,117.772 391.251,121.272 385.5,124.5C 382.882,122.967 380.216,121.634 377.5,120.5C 381.418,114.246 386.085,108.579 391.5,103.5C 392.458,103.047 393.292,102.381 394,101.5C 396.703,104.371 399.536,107.038 402.5,109.5 Z"/></g>
<g><path style="opacity:1" fill="#14332d" d="M 199.5,124.5 C 201.975,127.785 203.642,131.452 204.5,135.5C 199.193,133.712 194.193,131.212 189.5,128C 184.167,124 178.833,120 173.5,116C 170.679,114.379 170.013,112.212 171.5,109.5C 174.542,106.299 178.042,103.633 182,101.5C 188.318,108.806 194.152,116.473 199.5,124.5 Z"/></g>
<g><path style="opacity:1" fill="#152c29" d="M 336.5,132.5 C 327.994,143.973 326.161,156.64 331,170.5C 340.461,189.642 355.627,196.476 376.5,191C 380.472,189.681 384.139,187.847 387.5,185.5C 388.5,185.5 389.5,185.5 390.5,185.5C 392.08,192.181 394.413,198.514 397.5,204.5C 398.685,209.425 399.351,214.425 399.5,219.5C 400.833,231.5 400.833,243.5 399.5,255.5C 399.167,255.5 398.833,255.5 398.5,255.5C 396.451,266.081 393.285,276.414 389,286.5C 383.491,294.857 377.991,303.19 372.5,311.5C 368.145,313.403 366.645,316.736 368,321.5C 375.628,339.226 382.128,357.226 387.5,375.5C 395.622,394.864 402.955,414.531 409.5,434.5C 326.167,434.5 242.833,434.5 159.5,434.5C 159.5,433.167 159.5,431.833 159.5,430.5C 166.108,411.673 173.108,393.007 180.5,374.5C 182.305,369.084 184.305,363.751 186.5,358.5C 188.448,356.68 189.448,354.346 189.5,351.5C 190.5,351.5 191.5,351.5 192.5,351.5C 193.666,346.987 195,342.487 196.5,338C 197.482,335.991 198.815,335.491 200.5,336.5C 201.799,334.693 201.632,333.027 200,331.5C 199.444,333.595 198.944,333.762 198.5,332C 200.45,327.318 202.117,322.484 203.5,317.5C 202.207,315.181 200.207,313.848 197.5,313.5C 193.243,307.236 188.577,301.236 183.5,295.5C 180.212,291.469 178.212,286.803 177.5,281.5C 176.605,278.262 176.605,275.095 177.5,272C 173.374,267.755 171.374,262.588 171.5,256.5C 172.396,254.199 172.562,251.866 172,249.5C 171.667,250.167 171.333,250.833 171,251.5C 168.775,236.783 168.608,222.116 170.5,207.5C 170.783,203.046 172.116,199.046 174.5,195.5C 178.078,186.418 182.411,177.751 187.5,169.5C 192.904,167.565 196.571,163.898 198.5,158.5C 204.383,152.78 210.383,147.28 216.5,142C 219.076,141.218 221.076,139.718 222.5,137.5C 224.045,136.548 225.712,136.215 227.5,136.5C 227.5,135.5 227.5,134.5 227.5,133.5C 229.179,133.715 230.179,133.048 230.5,131.5C 239.22,126.824 248.22,123.157 257.5,120.5C 282.589,115.946 306.923,118.446 330.5,128C 332.859,129.242 334.859,130.742 336.5,132.5 Z"/></g>
<g><path style="opacity:1" fill="#8bcebc" d="M 377.5,120.5 C 380.216,121.634 382.882,122.967 385.5,124.5C 389.415,126.974 392.915,129.974 396,133.5C 397.452,137.737 399.452,141.737 402,145.5C 402.499,150.155 402.666,154.821 402.5,159.5C 400.835,170.237 395.835,178.904 387.5,185.5C 384.139,187.847 380.472,189.681 376.5,191C 355.627,196.476 340.461,189.642 331,170.5C 326.161,156.64 327.994,143.973 336.5,132.5C 347.453,119.854 361.12,115.854 377.5,120.5 Z"/></g>
<g><path style="opacity:1" fill="#34aa8d" d="M 405.5,99.5 C 421.638,114.304 434.305,131.637 443.5,151.5C 444.038,156.111 445.371,160.444 447.5,164.5C 445.665,165.192 443.832,164.858 442,163.5C 441.333,160.167 440.667,156.833 440,153.5C 439.667,153.833 439.333,154.167 439,154.5C 437.588,152.314 435.755,150.648 433.5,149.5C 431.797,147.859 429.63,146.859 427,146.5C 426.395,148.481 425.395,148.815 424,147.5C 422.26,148.716 421.26,150.382 421,152.5C 419.221,151.521 417.555,151.854 416,153.5C 415.692,152.692 415.192,152.025 414.5,151.5C 413.28,152.711 412.113,152.711 411,151.5C 410.333,152.167 409.667,152.833 409,153.5C 408.593,149.871 409.093,146.371 410.5,143C 409.975,142.308 409.308,141.808 408.5,141.5C 407.751,145.999 407.084,150.499 406.5,155C 408.068,157.12 407.568,158.62 405,159.5C 404.667,156.5 404.333,153.5 404,150.5C 403.819,153.695 403.319,156.695 402.5,159.5C 402.666,154.821 402.499,150.155 402,145.5C 399.452,141.737 397.452,137.737 396,133.5C 392.915,129.974 389.415,126.974 385.5,124.5C 391.251,121.272 396.918,117.772 402.5,114C 403.801,112.384 403.801,110.884 402.5,109.5C 401.246,106.907 399.58,104.573 397.5,102.5C 398.583,102.461 399.583,102.127 400.5,101.5C 408.118,108.355 409.784,107.689 405.5,99.5 Z"/></g>
<g><path style="opacity:1" fill="#31a78b" d="M 171.5,109.5 C 170.013,112.212 170.679,114.379 173.5,116C 178.833,120 184.167,124 189.5,128C 194.193,131.212 199.193,133.712 204.5,135.5C 203.642,131.452 201.975,127.785 199.5,124.5C 201.799,125.932 203.465,125.266 204.5,122.5C 205.258,123.811 206.258,124.311 207.5,124C 208.5,121.909 207.833,120.243 205.5,119C 212.851,118.316 220.185,118.482 227.5,119.5C 234.098,119.058 240.598,118.058 247,116.5C 248.059,116.63 248.892,117.13 249.5,118C 248.167,118.667 247.167,119.667 246.5,121C 244.5,121.333 242.5,121.667 240.5,122C 239.289,122.893 239.289,123.726 240.5,124.5C 245.586,121.153 251.253,119.819 257.5,120.5C 248.22,123.157 239.22,126.824 230.5,131.5C 220.516,136.164 211.516,142.331 203.5,150C 198.939,155.388 194.272,160.554 189.5,165.5C 188.178,165.33 187.011,165.663 186,166.5C 185.342,163.715 184.509,161.049 183.5,158.5C 182.167,158.5 180.833,158.5 179.5,158.5C 179.719,159.675 179.386,160.675 178.5,161.5C 177.289,160.726 177.289,159.893 178.5,159C 171.174,158.5 163.841,158.334 156.5,158.5C 154.998,156.825 153.665,154.992 152.5,153C 147.796,152.198 146.796,150.031 149.5,146.5C 147.741,145.246 146.241,145.579 145,147.5C 145.263,146.049 145.096,144.716 144.5,143.5C 142.5,144.5 140.5,145.5 138.5,146.5C 137.5,145.833 136.5,145.167 135.5,144.5C 134.261,146.007 134.595,147.174 136.5,148C 135.552,148.483 134.552,148.649 133.5,148.5C 133.5,147.5 133.5,146.5 133.5,145.5C 129.5,144.833 129.5,144.167 133.5,143.5C 132.746,140.744 132.746,138.078 133.5,135.5C 135.763,130.635 138.763,126.302 142.5,122.5C 145.212,121.953 146.712,120.287 147,117.5C 147.419,118.672 148.085,119.672 149,120.5C 151.565,118.821 154.398,118.154 157.5,118.5C 157.5,117.5 157.5,116.5 157.5,115.5C 160.187,115.336 162.854,115.503 165.5,116C 164.269,117.183 164.269,118.349 165.5,119.5C 167.707,121.31 170.041,121.643 172.5,120.5C 170.774,116.957 169.107,113.457 167.5,110C 168.793,109.51 170.127,109.343 171.5,109.5 Z"/></g>
<g><path style="opacity:1" fill="#0f3c32" d="M 230.5,131.5 C 230.179,133.048 229.179,133.715 227.5,133.5C 227.5,134.5 227.5,135.5 227.5,136.5C 225.712,136.215 224.045,136.548 222.5,137.5C 221.076,139.718 219.076,141.218 216.5,142C 210.383,147.28 204.383,152.78 198.5,158.5C 196.571,163.898 192.904,167.565 187.5,169.5C 187.733,167.938 188.4,166.605 189.5,165.5C 194.272,160.554 198.939,155.388 203.5,150C 211.516,142.331 220.516,136.164 230.5,131.5 Z"/></g>
<g><path style="opacity:0.421" fill="#546260" d="M 65.5,157.5 C 65.3031,168.351 65.6365,179.184 66.5,190C 66.1667,191.833 65.8333,193.667 65.5,195.5C 64.8933,195.376 64.56,195.043 64.5,194.5C 64.3526,182.179 64.6859,169.846 65.5,157.5 Z"/></g>
<g><path style="opacity:1" fill="#2d9e84" d="M 133.5,135.5 C 132.746,138.078 132.746,140.744 133.5,143.5C 129.5,144.167 129.5,144.833 133.5,145.5C 133.5,146.5 133.5,147.5 133.5,148.5C 134.552,148.649 135.552,148.483 136.5,148C 134.595,147.174 134.261,146.007 135.5,144.5C 136.5,145.167 137.5,145.833 138.5,146.5C 140.5,145.5 142.5,144.5 144.5,143.5C 145.096,144.716 145.263,146.049 145,147.5C 146.241,145.579 147.741,145.246 149.5,146.5C 146.796,150.031 147.796,152.198 152.5,153C 153.665,154.992 154.998,156.825 156.5,158.5C 163.841,158.334 171.174,158.5 178.5,159C 177.289,159.893 177.289,160.726 178.5,161.5C 179.386,160.675 179.719,159.675 179.5,158.5C 180.833,158.5 182.167,158.5 183.5,158.5C 184.509,161.049 185.342,163.715 186,166.5C 187.011,165.663 188.178,165.33 189.5,165.5C 188.4,166.605 187.733,167.938 187.5,169.5C 184.34,173.148 181.673,177.148 179.5,181.5C 177.907,180.652 176.74,179.319 176,177.5C 175.5,178 175,178.5 174.5,179C 159.17,179.5 143.837,179.667 128.5,179.5C 128.509,181.308 128.009,182.975 127,184.5C 126.667,184.167 126.333,183.833 126,183.5C 125.667,179.833 125.333,176.167 125,172.5C 123.211,169.821 122.045,169.987 121.5,173C 121.706,174.865 122.372,176.532 123.5,178C 123.22,179.395 122.553,180.562 121.5,181.5C 120.066,179.78 119.233,177.78 119,175.5C 117.701,175.966 116.201,175.966 114.5,175.5C 118.719,161.065 125.053,147.732 133.5,135.5 Z"/></g>
<g><path style="opacity:1" fill="#14312c" d="M 156.5,158.5 C 161.813,163.478 167.146,168.478 172.5,173.5C 171.667,173.833 170.833,174.167 170,174.5C 165.073,173.715 160.239,172.548 155.5,171C 148.833,168.333 142.167,165.667 135.5,163C 134.484,162.481 133.818,161.647 133.5,160.5C 134.915,157.589 136.082,154.589 137,151.5C 138.389,149.773 140.056,148.439 142,147.5C 146.425,151.766 151.259,155.433 156.5,158.5 Z"/></g>
<g><path style="opacity:1" fill="#2b9980" d="M 433.5,149.5 C 435.755,150.648 437.588,152.314 439,154.5C 439.333,154.167 439.667,153.833 440,153.5C 440.667,156.833 441.333,160.167 442,163.5C 443.832,164.858 445.665,165.192 447.5,164.5C 445.371,160.444 444.038,156.111 443.5,151.5C 454.637,173.042 460.637,196.042 461.5,220.5C 460.907,217.5 460.074,214.5 459,211.5C 458.333,213.5 457.667,215.5 457,217.5C 456.754,214.11 456.254,210.777 455.5,207.5C 455.167,207.167 454.833,206.833 454.5,206.5C 454.169,211.643 452.836,212.31 450.5,208.5C 450.838,205.843 450.171,203.51 448.5,201.5C 440.33,202.803 431.997,203.47 423.5,203.5C 415.258,203.493 407.091,203.159 399,202.5C 398.722,203.416 398.222,204.082 397.5,204.5C 394.413,198.514 392.08,192.181 390.5,185.5C 389.5,185.5 388.5,185.5 387.5,185.5C 395.835,178.904 400.835,170.237 402.5,159.5C 403.319,156.695 403.819,153.695 404,150.5C 404.333,153.5 404.667,156.5 405,159.5C 407.568,158.62 408.068,157.12 406.5,155C 407.084,150.499 407.751,145.999 408.5,141.5C 409.308,141.808 409.975,142.308 410.5,143C 409.093,146.371 408.593,149.871 409,153.5C 409.667,152.833 410.333,152.167 411,151.5C 412.113,152.711 413.28,152.711 414.5,151.5C 415.192,152.025 415.692,152.692 416,153.5C 417.555,151.854 419.221,151.521 421,152.5C 421.26,150.382 422.26,148.716 424,147.5C 425.395,148.815 426.395,148.481 427,146.5C 429.63,146.859 431.797,147.859 433.5,149.5 Z"/></g>
<g><path style="opacity:1" fill="#14312c" d="M 433.5,149.5 C 434.921,152.679 436.588,155.679 438.5,158.5C 439.452,160.045 439.785,161.712 439.5,163.5C 427.271,167.31 414.938,170.977 402.5,174.5C 401.5,174.167 400.5,173.833 399.5,173.5C 402.992,169.175 406.992,165.342 411.5,162C 417.108,158.724 422.442,155.057 427.5,151C 429.345,149.872 431.345,149.372 433.5,149.5 Z"/></g>
<g><path style="opacity:1" fill="#2a977e" d="M 179.5,181.5 C 176.724,185.728 175.058,190.395 174.5,195.5C 172.116,199.046 170.783,203.046 170.5,207.5C 168.421,212.169 167.421,217.169 167.5,222.5C 167.167,222.5 166.833,222.5 166.5,222.5C 165.029,220.616 164.529,218.616 165,216.5C 163.883,217.949 163.216,219.616 163,221.5C 161.127,218.97 159.293,216.47 157.5,214C 154.167,213.667 150.833,213.333 147.5,213C 145.705,210.797 143.371,209.631 140.5,209.5C 133.416,208.74 126.416,207.74 119.5,206.5C 119.5,207.833 119.5,209.167 119.5,210.5C 119.5,211.167 119.5,211.833 119.5,212.5C 118.883,212.611 118.383,212.944 118,213.5C 117.579,217.872 116.912,222.205 116,226.5C 114.605,225.185 113.605,225.519 113,227.5C 112.077,226.241 111.243,224.908 110.5,223.5C 109.686,225.766 109.186,228.1 109,230.5C 108.667,224.167 108.333,217.833 108,211.5C 107.257,226.263 107.757,240.93 109.5,255.5C 109.5,257.5 109.5,259.5 109.5,261.5C 103.523,232.517 105.19,203.85 114.5,175.5C 116.201,175.966 117.701,175.966 119,175.5C 119.233,177.78 120.066,179.78 121.5,181.5C 122.553,180.562 123.22,179.395 123.5,178C 122.372,176.532 121.706,174.865 121.5,173C 122.045,169.987 123.211,169.821 125,172.5C 125.333,176.167 125.667,179.833 126,183.5C 126.333,183.833 126.667,184.167 127,184.5C 128.009,182.975 128.509,181.308 128.5,179.5C 143.837,179.667 159.17,179.5 174.5,179C 175,178.5 175.5,178 176,177.5C 176.74,179.319 177.907,180.652 179.5,181.5 Z"/></g>
<g><path style="opacity:1" fill="#3ab898" d="M 327.5,271.5 C 323.474,275.195 319.474,278.862 315.5,282.5C 309.394,286.37 302.727,289.037 295.5,290.5C 290.187,291.362 284.854,291.529 279.5,291C 271.441,289.142 263.441,286.976 255.5,284.5C 234.095,269.843 225.262,249.51 229,223.5C 235.193,201.307 249.36,187.14 271.5,181C 305.181,177.721 327.681,191.887 339,223.5C 340.656,235.956 339.323,247.956 335,259.5C 332.739,263.696 330.239,267.696 327.5,271.5 Z"/></g>
<g><path style="opacity:1" fill="#1b5a4d" d="M 187.5,169.5 C 182.411,177.751 178.078,186.418 174.5,195.5C 175.058,190.395 176.724,185.728 179.5,181.5C 181.673,177.148 184.34,173.148 187.5,169.5 Z"/></g>
<g><path style="opacity:0.506" fill="#6c7979" d="M 502.5,176.5 C 502.821,181.695 502.487,186.695 501.5,191.5C 501.062,191.565 500.728,191.399 500.5,191C 501.144,186.066 501.81,181.233 502.5,176.5 Z"/></g>
<g><path style="opacity:1" fill="#2f3f3c" d="M 500.5,143.5 C 502.14,146.488 502.974,149.821 503,153.5C 503.5,165.162 503.667,176.829 503.5,188.5C 506.971,188.101 507.304,186.601 504.5,184C 505.676,182.086 506.676,182.252 507.5,184.5C 508.244,183.009 508.91,181.509 509.5,180C 508.692,179.692 508.025,179.192 507.5,178.5C 508.641,177.575 508.641,176.741 507.5,176C 508.742,175.689 509.742,176.189 510.5,177.5C 511.167,176.833 511.833,176.167 512.5,175.5C 513.107,175.624 513.44,175.957 513.5,176.5C 510.448,183.601 506.615,190.268 502,196.5C 501.5,196 501,195.5 500.5,195C 501.337,193.989 501.67,192.822 501.5,191.5C 502.487,186.695 502.821,181.695 502.5,176.5C 502.206,165.469 501.54,154.469 500.5,143.5 Z"/></g>
<g><path style="opacity:1" fill="#113f35" d="M 420.5,223.5 C 430.486,224.166 440.486,224.499 450.5,224.5C 449.979,220.519 449.646,216.519 449.5,212.5C 443.609,213.956 437.609,214.623 431.5,214.5C 431.5,215.5 431.5,216.5 431.5,217.5C 424.486,216.181 417.819,217.181 411.5,220.5C 414,221.359 416.333,222.359 418.5,223.5C 417.5,223.5 416.5,223.5 415.5,223.5C 413.914,222.852 412.247,222.352 410.5,222C 409.167,221 409.167,220 410.5,219C 417.56,216.658 424.56,214.491 431.5,212.5C 437.54,211.547 443.54,210.714 449.5,210C 450,210.5 450.5,211 451,211.5C 451.499,216.155 451.666,220.821 451.5,225.5C 443.16,225.666 434.827,225.5 426.5,225C 424.292,224.809 422.292,224.309 420.5,223.5 Z"/></g>
<g><path style="opacity:1" fill="#142e2a" d="M 124.5,208.5 C 136.227,211.848 147.894,215.348 159.5,219C 159.957,219.414 160.291,219.914 160.5,220.5C 157.92,221.549 155.254,222.216 152.5,222.5C 141.5,222.5 130.5,222.5 119.5,222.5C 120.023,219.11 120.857,215.777 122,212.5C 122.75,211.874 123.584,211.374 124.5,211C 120.764,209.493 120.764,208.66 124.5,208.5 Z"/></g>
<g><path style="opacity:1" fill="#142d29" d="M 420.5,223.5 C 419.833,223.5 419.167,223.5 418.5,223.5C 416.333,222.359 414,221.359 411.5,220.5C 417.819,217.181 424.486,216.181 431.5,217.5C 431.5,216.5 431.5,215.5 431.5,214.5C 437.609,214.623 443.609,213.956 449.5,212.5C 449.646,216.519 449.979,220.519 450.5,224.5C 440.486,224.499 430.486,224.166 420.5,223.5 Z"/></g>
<g><path style="opacity:1" fill="#14463c" d="M 124.5,208.5 C 120.764,208.66 120.764,209.493 124.5,211C 123.584,211.374 122.75,211.874 122,212.5C 120.857,215.777 120.023,219.11 119.5,222.5C 130.5,222.5 141.5,222.5 152.5,222.5C 141.346,223.495 130.012,223.828 118.5,223.5C 118.423,219.785 118.756,216.119 119.5,212.5C 119.5,211.833 119.5,211.167 119.5,210.5C 120.404,209.791 120.737,208.791 120.5,207.5C 122.099,207.232 123.432,207.566 124.5,208.5 Z"/></g>
<g><path style="opacity:1" fill="#228e76" d="M 450.5,208.5 C 446.818,208.335 443.152,208.501 439.5,209C 436.689,209.983 434.023,211.149 431.5,212.5C 424.56,214.491 417.56,216.658 410.5,219C 409.167,220 409.167,221 410.5,222C 412.247,222.352 413.914,222.852 415.5,223.5C 417.158,224.181 418.825,225.015 420.5,226C 430.517,226.168 440.517,226.668 450.5,227.5C 449.833,228.167 449.167,228.833 448.5,229.5C 449.853,230.524 450.52,231.857 450.5,233.5C 439.809,235.948 429.143,235.948 418.5,233.5C 416.626,233.39 415.126,234.056 414,235.5C 413.333,230.167 412.667,230.167 412,235.5C 411.692,234.692 411.192,234.025 410.5,233.5C 408.856,238.077 407.522,242.744 406.5,247.5C 405.522,247.977 404.689,248.643 404,249.5C 403.112,239.589 401.612,229.589 399.5,219.5C 399.351,214.425 398.685,209.425 397.5,204.5C 398.222,204.082 398.722,203.416 399,202.5C 407.091,203.159 415.258,203.493 423.5,203.5C 431.997,203.47 440.33,202.803 448.5,201.5C 450.171,203.51 450.838,205.843 450.5,208.5 Z"/></g>
<g><path style="opacity:1" fill="#1f8872" d="M 166.5,222.5 C 165.557,233.877 165.224,245.211 165.5,256.5C 166.325,257.386 167.325,257.719 168.5,257.5C 168.5,258.833 168.5,260.167 168.5,261.5C 165.969,263.158 163.136,264.158 160,264.5C 158.045,264.359 156.545,263.526 155.5,262C 153.5,261.833 151.5,261.667 149.5,261.5C 142.359,263.179 135.025,263.845 127.5,263.5C 127.5,262.167 127.5,260.833 127.5,259.5C 121.833,259.5 116.167,259.5 110.5,259.5C 110.768,257.901 110.434,256.568 109.5,255.5C 107.757,240.93 107.257,226.263 108,211.5C 108.333,217.833 108.667,224.167 109,230.5C 109.186,228.1 109.686,225.766 110.5,223.5C 111.243,224.908 112.077,226.241 113,227.5C 113.605,225.519 114.605,225.185 116,226.5C 116.912,222.205 117.579,217.872 118,213.5C 118.383,212.944 118.883,212.611 119.5,212.5C 118.756,216.119 118.423,219.785 118.5,223.5C 130.012,223.828 141.346,223.495 152.5,222.5C 155.254,222.216 157.92,221.549 160.5,220.5C 160.291,219.914 159.957,219.414 159.5,219C 147.894,215.348 136.227,211.848 124.5,208.5C 123.432,207.566 122.099,207.232 120.5,207.5C 120.737,208.791 120.404,209.791 119.5,210.5C 119.5,209.167 119.5,207.833 119.5,206.5C 126.416,207.74 133.416,208.74 140.5,209.5C 143.371,209.631 145.705,210.797 147.5,213C 150.833,213.333 154.167,213.667 157.5,214C 159.293,216.47 161.127,218.97 163,221.5C 163.216,219.616 163.883,217.949 165,216.5C 164.529,218.616 165.029,220.616 166.5,222.5 Z"/></g>
<g><path style="opacity:1" fill="#1f8872" d="M 461.5,220.5 C 462.678,237.547 461.011,254.214 456.5,270.5C 456.666,265.821 456.499,261.155 456,256.5C 455.411,258.863 453.911,259.863 451.5,259.5C 451.762,260.978 451.429,262.311 450.5,263.5C 448.889,262.68 448.222,261.346 448.5,259.5C 440.804,259.169 433.138,259.503 425.5,260.5C 427.766,261.314 430.1,261.814 432.5,262C 431.57,262.991 430.404,263.491 429,263.5C 421.719,262.278 414.552,260.612 407.5,258.5C 405.432,258.967 403.432,259.634 401.5,260.5C 399.783,259.332 399.116,257.665 399.5,255.5C 400.833,243.5 400.833,231.5 399.5,219.5C 401.612,229.589 403.112,239.589 404,249.5C 404.689,248.643 405.522,247.977 406.5,247.5C 407.522,242.744 408.856,238.077 410.5,233.5C 411.192,234.025 411.692,234.692 412,235.5C 412.667,230.167 413.333,230.167 414,235.5C 415.126,234.056 416.626,233.39 418.5,233.5C 429.143,235.948 439.809,235.948 450.5,233.5C 450.52,231.857 449.853,230.524 448.5,229.5C 449.167,228.833 449.833,228.167 450.5,227.5C 440.517,226.668 430.517,226.168 420.5,226C 418.825,225.015 417.158,224.181 415.5,223.5C 416.5,223.5 417.5,223.5 418.5,223.5C 419.167,223.5 419.833,223.5 420.5,223.5C 422.292,224.309 424.292,224.809 426.5,225C 434.827,225.5 443.16,225.666 451.5,225.5C 451.666,220.821 451.499,216.155 451,211.5C 450.5,211 450,210.5 449.5,210C 443.54,210.714 437.54,211.547 431.5,212.5C 434.023,211.149 436.689,209.983 439.5,209C 443.152,208.501 446.818,208.335 450.5,208.5C 452.836,212.31 454.169,211.643 454.5,206.5C 454.833,206.833 455.167,207.167 455.5,207.5C 456.254,210.777 456.754,214.11 457,217.5C 457.667,215.5 458.333,213.5 459,211.5C 460.074,214.5 460.907,217.5 461.5,220.5 Z"/></g>
<g><path style="opacity:1" fill="#0f3730" d="M 170.5,207.5 C 168.608,222.116 168.775,236.783 171,251.5C 171.333,250.833 171.667,250.167 172,249.5C 172.562,251.866 172.396,254.199 171.5,256.5C 171.374,262.588 173.374,267.755 177.5,272C 176.605,275.095 176.605,278.262 177.5,281.5C 171.868,270.986 168.701,259.653 168,247.5C 167.5,239.173 167.334,230.84 167.5,222.5C 167.421,217.169 168.421,212.169 170.5,207.5 Z"/></g>
<g><path style="opacity:1" fill="#1c7f6b" d="M 398.5,255.5 C 398.833,255.5 399.167,255.5 399.5,255.5C 399.116,257.665 399.783,259.332 401.5,260.5C 403.432,259.634 405.432,258.967 407.5,258.5C 414.552,260.612 421.719,262.278 429,263.5C 430.404,263.491 431.57,262.991 432.5,262C 430.1,261.814 427.766,261.314 425.5,260.5C 433.138,259.503 440.804,259.169 448.5,259.5C 448.222,261.346 448.889,262.68 450.5,263.5C 451.429,262.311 451.762,260.978 451.5,259.5C 453.911,259.863 455.411,258.863 456,256.5C 456.499,261.155 456.666,265.821 456.5,270.5C 455.009,279.303 452.342,287.637 448.5,295.5C 447.71,291.794 446.71,288.128 445.5,284.5C 446.719,280.68 446.719,277.013 445.5,273.5C 432.389,270.564 419.055,268.231 405.5,266.5C 405.263,267.791 405.596,268.791 406.5,269.5C 407.013,271.854 408.179,273.854 410,275.5C 412.821,277.322 415.321,279.489 417.5,282C 410.915,283.27 410.915,284.77 417.5,286.5C 411.537,287.496 405.537,287.829 399.5,287.5C 399.657,288.873 399.49,290.207 399,291.5C 397.206,288.046 395.039,284.88 392.5,282C 395.94,273.543 397.94,264.71 398.5,255.5 Z"/></g>
<g><path style="opacity:1" fill="#13302b" d="M 445.5,273.5 C 445.48,278.939 443.647,283.606 440,287.5C 437.865,286.873 435.698,286.373 433.5,286C 423.795,281.513 414.795,276.013 406.5,269.5C 405.596,268.791 405.263,267.791 405.5,266.5C 419.055,268.231 432.389,270.564 445.5,273.5 Z"/></g>
<g><path style="opacity:1" fill="#1a5a4b" d="M 327.5,271.5 C 324.777,276.556 320.777,280.223 315.5,282.5C 319.474,278.862 323.474,275.195 327.5,271.5 Z"/></g>
<g><path style="opacity:1" fill="#187a66" d="M 166.5,222.5 C 166.833,222.5 167.167,222.5 167.5,222.5C 167.334,230.84 167.5,239.173 168,247.5C 168.701,259.653 171.868,270.986 177.5,281.5C 178.212,286.803 180.212,291.469 183.5,295.5C 184.806,299.507 186.806,303.174 189.5,306.5C 189.291,307.086 188.957,307.586 188.5,308C 185.746,308.272 183.079,308.772 180.5,309.5C 180,306.515 178.167,305.182 175,305.5C 172.667,306.167 170.333,306.833 168,307.5C 159.878,307.14 151.711,307.14 143.5,307.5C 143.5,306.167 143.5,304.833 143.5,303.5C 142.167,303.5 140.833,303.5 139.5,303.5C 139.5,304.833 139.5,306.167 139.5,307.5C 134.437,306.557 130.271,304.224 127,300.5C 125.956,301.623 125.29,302.956 125,304.5C 123.5,300.833 122,297.167 120.5,293.5C 120.41,289.931 122.076,287.931 125.5,287.5C 125.134,289.905 124.467,292.238 123.5,294.5C 123.824,296.569 124.658,296.902 126,295.5C 126.662,293.187 127.162,290.854 127.5,288.5C 129.591,288.682 131.591,288.348 133.5,287.5C 136.57,285.631 139.237,283.298 141.5,280.5C 148.377,276.562 155.377,272.895 162.5,269.5C 162.5,268.5 162.5,267.5 162.5,266.5C 148.647,267.667 134.98,269.334 121.5,271.5C 121.128,275.404 120.794,279.404 120.5,283.5C 119.5,283.5 118.5,283.5 117.5,283.5C 117.67,284.822 117.337,285.989 116.5,287C 118.301,287.317 118.634,287.984 117.5,289C 119.113,291.228 119.78,293.728 119.5,296.5C 114.476,285.417 111.143,273.75 109.5,261.5C 109.5,259.5 109.5,257.5 109.5,255.5C 110.434,256.568 110.768,257.901 110.5,259.5C 116.167,259.5 121.833,259.5 127.5,259.5C 127.5,260.833 127.5,262.167 127.5,263.5C 135.025,263.845 142.359,263.179 149.5,261.5C 151.5,261.667 153.5,261.833 155.5,262C 156.545,263.526 158.045,264.359 160,264.5C 163.136,264.158 165.969,263.158 168.5,261.5C 168.5,260.167 168.5,258.833 168.5,257.5C 167.325,257.719 166.325,257.386 165.5,256.5C 165.224,245.211 165.557,233.877 166.5,222.5 Z"/></g>
<g><path style="opacity:1" fill="#14302b" d="M 141.5,280.5 C 137.037,282.545 132.37,284.211 127.5,285.5C 123.394,281.88 121.394,277.213 121.5,271.5C 134.98,269.334 148.647,267.667 162.5,266.5C 162.5,267.5 162.5,268.5 162.5,269.5C 155.377,272.895 148.377,276.562 141.5,280.5 Z"/></g>
<g><path style="opacity:1" fill="#358975" d="M 255.5,284.5 C 263.441,286.976 271.441,289.142 279.5,291C 284.854,291.529 290.187,291.362 295.5,290.5C 286.83,293.033 277.997,293.033 269,290.5C 264.3,288.717 259.8,286.717 255.5,284.5 Z"/></g>
<g><path style="opacity:1" fill="#157561" d="M 398.5,255.5 C 397.94,264.71 395.94,273.543 392.5,282C 395.039,284.88 397.206,288.046 399,291.5C 399.49,290.207 399.657,288.873 399.5,287.5C 405.537,287.829 411.537,287.496 417.5,286.5C 410.915,284.77 410.915,283.27 417.5,282C 415.321,279.489 412.821,277.322 410,275.5C 408.179,273.854 407.013,271.854 406.5,269.5C 414.795,276.013 423.795,281.513 433.5,286C 435.698,286.373 437.865,286.873 440,287.5C 443.647,283.606 445.48,278.939 445.5,273.5C 446.719,277.013 446.719,280.68 445.5,284.5C 446.71,288.128 447.71,291.794 448.5,295.5C 443.976,308.219 437.643,319.885 429.5,330.5C 428.77,328.955 427.437,328.122 425.5,328C 425.957,327.586 426.291,327.086 426.5,326.5C 425.722,323.461 424.388,320.794 422.5,318.5C 421.5,318.833 420.833,319.5 420.5,320.5C 421.73,322.933 422.73,325.433 423.5,328C 422.034,328.635 420.7,329.469 419.5,330.5C 418.036,327.997 416.869,325.33 416,322.5C 414.025,322.488 411.858,322.822 409.5,323.5C 402.225,319.86 395.225,315.693 388.5,311C 386.17,309.655 383.837,309.488 381.5,310.5C 384.619,315.766 387.952,320.766 391.5,325.5C 391.895,328.523 390.895,329.523 388.5,328.5C 384.769,331.463 383.102,330.463 383.5,325.5C 379.045,326.027 378.379,324.527 381.5,321C 380.584,320.626 379.75,320.126 379,319.5C 377.521,322.761 376.355,326.094 375.5,329.5C 373.876,329.64 372.71,328.973 372,327.5C 371.688,324.691 372.188,322.024 373.5,319.5C 372.5,319.5 371.5,319.5 370.5,319.5C 370.107,316.487 370.774,313.82 372.5,311.5C 377.991,303.19 383.491,294.857 389,286.5C 393.285,276.414 396.451,266.081 398.5,255.5 Z"/></g>
<g><path style="opacity:1" fill="#177461" d="M 121.5,271.5 C 121.394,277.213 123.394,281.88 127.5,285.5C 132.37,284.211 137.037,282.545 141.5,280.5C 139.237,283.298 136.57,285.631 133.5,287.5C 131.591,288.348 129.591,288.682 127.5,288.5C 127.162,290.854 126.662,293.187 126,295.5C 124.658,296.902 123.824,296.569 123.5,294.5C 124.467,292.238 125.134,289.905 125.5,287.5C 122.076,287.931 120.41,289.931 120.5,293.5C 122,297.167 123.5,300.833 125,304.5C 125.29,302.956 125.956,301.623 127,300.5C 130.271,304.224 134.437,306.557 139.5,307.5C 139.5,306.167 139.5,304.833 139.5,303.5C 140.833,303.5 142.167,303.5 143.5,303.5C 143.5,304.833 143.5,306.167 143.5,307.5C 151.711,307.14 159.878,307.14 168,307.5C 170.333,306.833 172.667,306.167 175,305.5C 178.167,305.182 180,306.515 180.5,309.5C 180.5,309.833 180.5,310.167 180.5,310.5C 174.544,313.423 168.544,316.423 162.5,319.5C 160.073,319.523 157.74,320.023 155.5,321C 153.405,324.024 150.738,325.191 147.5,324.5C 143.737,326.427 140.403,328.094 137.5,329.5C 129.711,319.597 123.711,308.597 119.5,296.5C 119.78,293.728 119.113,291.228 117.5,289C 118.634,287.984 118.301,287.317 116.5,287C 117.337,285.989 117.67,284.822 117.5,283.5C 118.5,283.5 119.5,283.5 120.5,283.5C 120.794,279.404 121.128,275.404 121.5,271.5 Z"/></g>
<g><path style="opacity:1" fill="#132f2b" d="M 409.5,323.5 C 412.001,325.502 414.335,327.669 416.5,330C 414.028,334.466 410.862,338.299 407,341.5C 401.601,336.345 396.434,331.012 391.5,325.5C 387.952,320.766 384.619,315.766 381.5,310.5C 383.837,309.488 386.17,309.655 388.5,311C 395.225,315.693 402.225,319.86 409.5,323.5 Z"/></g>
<g><path style="opacity:1" fill="#126c5a" d="M 183.5,295.5 C 188.577,301.236 193.243,307.236 197.5,313.5C 198.908,314.911 199.908,316.577 200.5,318.5C 195.711,331.752 191.044,345.086 186.5,358.5C 184.305,363.751 182.305,369.084 180.5,374.5C 163.056,362.391 148.723,347.391 137.5,329.5C 140.403,328.094 143.737,326.427 147.5,324.5C 150.738,325.191 153.405,324.024 155.5,321C 157.74,320.023 160.073,319.523 162.5,319.5C 157.591,322.307 152.924,325.64 148.5,329.5C 151.219,333.639 154.385,337.306 158,340.5C 164.026,335.472 169.693,330.138 175,324.5C 177.761,320.65 180.761,316.983 184,313.5C 184.483,312.552 184.649,311.552 184.5,310.5C 183.167,310.5 181.833,310.5 180.5,310.5C 180.5,310.167 180.5,309.833 180.5,309.5C 183.079,308.772 185.746,308.272 188.5,308C 188.957,307.586 189.291,307.086 189.5,306.5C 186.806,303.174 184.806,299.507 183.5,295.5 Z"/></g>
<g><path style="opacity:1" fill="#116b59" d="M 372.5,311.5 C 370.774,313.82 370.107,316.487 370.5,319.5C 371.5,319.5 372.5,319.5 373.5,319.5C 372.188,322.024 371.688,324.691 372,327.5C 372.71,328.973 373.876,329.64 375.5,329.5C 376.355,326.094 377.521,322.761 379,319.5C 379.75,320.126 380.584,320.626 381.5,321C 378.379,324.527 379.045,326.027 383.5,325.5C 383.102,330.463 384.769,331.463 388.5,328.5C 390.895,329.523 391.895,328.523 391.5,325.5C 396.434,331.012 401.601,336.345 407,341.5C 410.862,338.299 414.028,334.466 416.5,330C 414.335,327.669 412.001,325.502 409.5,323.5C 411.858,322.822 414.025,322.488 416,322.5C 416.869,325.33 418.036,327.997 419.5,330.5C 420.7,329.469 422.034,328.635 423.5,328C 422.73,325.433 421.73,322.933 420.5,320.5C 420.833,319.5 421.5,318.833 422.5,318.5C 424.388,320.794 425.722,323.461 426.5,326.5C 426.291,327.086 425.957,327.586 425.5,328C 427.437,328.122 428.77,328.955 429.5,330.5C 418.44,347.062 404.773,361.229 388.5,373C 387.748,373.671 387.414,374.504 387.5,375.5C 382.128,357.226 375.628,339.226 368,321.5C 366.645,316.736 368.145,313.403 372.5,311.5 Z"/></g>
<g><path style="opacity:1" fill="#132e2a" d="M 180.5,310.5 C 181.833,310.5 183.167,310.5 184.5,310.5C 184.649,311.552 184.483,312.552 184,313.5C 180.761,316.983 177.761,320.65 175,324.5C 169.693,330.138 164.026,335.472 158,340.5C 154.385,337.306 151.219,333.639 148.5,329.5C 152.924,325.64 157.591,322.307 162.5,319.5C 168.544,316.423 174.544,313.423 180.5,310.5 Z"/></g>
<g><path style="opacity:1" fill="#103730" d="M 197.5,313.5 C 200.207,313.848 202.207,315.181 203.5,317.5C 202.117,322.484 200.45,327.318 198.5,332C 198.944,333.762 199.444,333.595 200,331.5C 201.632,333.027 201.799,334.693 200.5,336.5C 198.815,335.491 197.482,335.991 196.5,338C 195,342.487 193.666,346.987 192.5,351.5C 191.5,351.5 190.5,351.5 189.5,351.5C 189.448,354.346 188.448,356.68 186.5,358.5C 191.044,345.086 195.711,331.752 200.5,318.5C 199.908,316.577 198.908,314.911 197.5,313.5 Z"/></g>
<g><path style="opacity:0.133" fill="#5b6866" d="M 159.5,430.5 C 159.5,431.833 159.5,433.167 159.5,434.5C 242.833,434.5 326.167,434.5 409.5,434.5C 326.002,435.499 242.335,435.833 158.5,435.5C 158.216,433.585 158.549,431.919 159.5,430.5 Z"/></g>
</svg>
